<svg xmlns="http://www.w3.org/2000/svg" viewBox="0 0 15.858 25.876">
    <path fill="#0d9488"
        d="M.107 4.478C2.699 2.975 5.305 1.498 7.901 0a601.883 601.883 0 017.923 4.508c.009 3.028.049 6.055.029 9.082-2.291 1.363-4.61 2.681-6.903 4.041.001 2.469.015 4.938-.004 7.406-.098.745-1.046 1.074-1.637.656C4.92 24.267 2.442 23.01.048 21.595.04 15.952.037 10.315.004 4.681a.176.176 0 01.103-.203zm7.809-2.147C6.294 3.246 4.693 4.2 3.077 5.128 4.693 6.066 6.315 7 7.946 7.916a322.076 322.076 0 004.883-2.792c-1.634-.935-3.26-1.896-4.913-2.793zm1.028 7.371c.012 1.844-.009 3.689.016 5.533 1.649-.875 3.248-1.853 4.873-2.776.013-1.862-.001-3.724-.002-5.586-1.625.95-3.261 1.88-4.887 2.829zM2.037 6.914c-.008 1.435.013 2.865.041 4.298 1.28-.642 2.518-1.396 3.753-2.131C4.6 8.304 3.295 7.647 2.037 6.914zm1.076 6.143c1.256.737 2.519 1.466 3.792 2.174.015-1.446.006-2.892.001-4.338-1.292.668-2.538 1.428-3.793 2.164zm-1.074 6.958c.015.157-.063.389.127.467 1.587.887 3.177 1.77 4.752 2.679.077-1.839.007-3.682.014-5.516-1.564-1.017-3.258-1.878-4.865-2.846-.068 1.732-.009 3.478-.028 5.216z" />
</svg>